<svg xmlns="http://www.w3.org/2000/svg" data-name="Layer 1" viewBox="0 0 155.51 155.51"><defs><linearGradient id="a" x1="133.74" x2="24.84" y1="21.76" y2="130.67" gradientUnits="userSpaceOnUse"><stop offset="0" stop-color="#2dccfd"/><stop offset="1" stop-color="#ad20e2"/></linearGradient><linearGradient id="b" x1="6471.36" x2="6362.46" y1="6969.64" y2="7078.54" gradientTransform="rotate(90 6720.5 382.88)" gradientUnits="userSpaceOnUse"><stop offset="0" stop-color="#a829e2"/><stop offset=".05" stop-color="#a829e2" stop-opacity=".84"/><stop offset=".11" stop-color="#a829e2" stop-opacity=".67"/><stop offset=".18" stop-color="#a829e2" stop-opacity=".51"/><stop offset=".25" stop-color="#a829e2" stop-opacity=".38"/><stop offset=".33" stop-color="#a829e2" stop-opacity=".28"/><stop offset=".43" stop-color="#a829e2" stop-opacity=".2"/><stop offset=".54" stop-color="#a829e2" stop-opacity=".14"/><stop offset=".68" stop-color="#a829e2" stop-opacity=".11"/><stop offset="1" stop-color="#a829e2" stop-opacity=".1"/></linearGradient><linearGradient id="c" x1="13419.24" x2="13310.33" y1="632.02" y2="740.92" gradientTransform="rotate(180 6720.5 382.88)" gradientUnits="userSpaceOnUse"><stop offset="0" stop-color="#e50e99"/><stop offset="1" stop-color="#a829e2" stop-opacity=".1"/></linearGradient><linearGradient id="d" x1="138.74" x2="29.84" y1="-7.39" y2="101.52" gradientTransform="translate(-5 29.16)" gradientUnits="userSpaceOnUse"><stop offset="0" stop-color="#21d4fd"/><stop offset=".03" stop-color="#27cdfc" stop-opacity=".96"/><stop offset=".23" stop-color="#4e9cf4" stop-opacity=".7"/><stop offset=".43" stop-color="#6e73ee" stop-opacity=".49"/><stop offset=".61" stop-color="#8753e9" stop-opacity=".32"/><stop offset=".77" stop-color="#993ce5" stop-opacity=".2"/><stop offset=".9" stop-color="#a42ee3" stop-opacity=".13"/><stop offset="1" stop-color="#a829e2" stop-opacity=".1"/></linearGradient></defs><rect width="137.75" height="137.75" x="8.88" y="8.88" rx="32.58" style="fill:url(#a)"/><rect width="137.75" height="137.75" x="8.88" y="8.88" rx="32.58" style="fill:url(#b)"/><rect width="137.75" height="137.75" x="8.88" y="8.88" rx="32.58" style="fill:url(#c)"/><rect width="137.75" height="137.75" x="8.88" y="8.88" rx="32.58" style="fill:url(#d)"/><path d="m53.35 63.21-4.1 5.65L81.27 92.1l.22.16 4.1-5.65-32.02-23.24zm20.92.16-.22-.16-4.1 5.65 32.02 23.24.22.16 4.1-5.65zm3.51-29.08c-17.35 0-31.48 10.79-31.48 24.06v.27h7v-.27c0-9.42 11-17.08 24.5-17.08s24.51 7.66 24.51 17.08v.27h7v-.27c-.04-13.27-14.17-24.06-31.53-24.06m24.45 62.87c0 9.42-11 17.08-24.51 17.08s-24.5-7.66-24.5-17.08v-.27h-7v.27c0 13.26 14.13 24 31.48 24s31.49-10.79 31.49-24v-.27h-7Z" data-name="New lines" style="fill:#fff"/></svg>